<svg width="36" height="32" viewBox="0 0 36 32" fill="none" xmlns="http://www.w3.org/2000/svg">
<g clip-path="url(#clip0_2_13)">
<path d="M0 1.5C0 0.66875 0.66875 0 1.5 0H4.34375C5.71875 0 6.9375 0.8 7.50625 2H33.1937C34.8375 2 36.0375 3.5625 35.6063 5.15L33.0438 14.6687C32.5125 16.6312 30.7313 18 28.7 18H10.6687L11.0063 19.7812C11.1438 20.4875 11.7625 21 12.4812 21H30.5C31.3313 21 32 21.6687 32 22.5C32 23.3313 31.3313 24 30.5 24H12.4812C10.3187 24 8.4625 22.4625 8.0625 20.3438L4.8375 3.40625C4.79375 3.16875 4.5875 3 4.34375 3H1.5C0.66875 3 0 2.33125 0 1.5ZM8 29C8 28.606 8.0776 28.2159 8.22836 27.8519C8.37913 27.488 8.6001 27.1573 8.87868 26.8787C9.15726 26.6001 9.48797 26.3791 9.85195 26.2284C10.2159 26.0776 10.606 26 11 26C11.394 26 11.7841 26.0776 12.1481 26.2284C12.512 26.3791 12.8427 26.6001 13.1213 26.8787C13.3999 27.1573 13.6209 27.488 13.7716 27.8519C13.9224 28.2159 14 28.606 14 29C14 29.394 13.9224 29.7841 13.7716 30.1481C13.6209 30.512 13.3999 30.8427 13.1213 31.1213C12.8427 31.3999 12.512 31.6209 12.1481 31.7716C11.7841 31.9224 11.394 32 11 32C10.606 32 10.2159 31.9224 9.85195 31.7716C9.48797 31.6209 9.15726 31.3999 8.87868 31.1213C8.6001 30.8427 8.37913 30.512 8.22836 30.1481C8.0776 29.7841 8 29.394 8 29ZM29 26C29.7956 26 30.5587 26.3161 31.1213 26.8787C31.6839 27.4413 32 28.2044 32 29C32 29.7956 31.6839 30.5587 31.1213 31.1213C30.5587 31.6839 29.7956 32 29 32C28.2044 32 27.4413 31.6839 26.8787 31.1213C26.3161 30.5587 26 29.7956 26 29C26 28.2044 26.3161 27.4413 26.8787 26.8787C27.4413 26.3161 28.2044 26 29 26Z" fill="#3b3b3b"/>
</g>
<defs>
<clipPath id="clip0_2_13">
<rect width="36" height="32" fill="white"/>
</clipPath>
</defs>
</svg>
