<svg width="448" height="448" viewBox="0 0 448 448" fill="none" xmlns="http://www.w3.org/2000/svg">
<path d="M312 200C325.3 200 336 210.7 336 224C336 237.3 325.3 248 312 248H136C122.7 248 112 237.3 112 224C112 210.7 122.7 200 136 200H312ZM0 64C0 28.65 28.65 0 64 0H384C419.3 0 448 28.65 448 64V384C448 419.3 419.3 448 384 448H64C28.65 448 0 419.3 0 384V64ZM48 64V384C48 392.8 55.16 400 64 400H384C392.8 400 400 392.8 400 384V64C400 55.16 392.8 48 384 48H64C55.16 48 48 55.16 48 64Z" fill="#3b3b3b"/>
</svg>
