<svg width="38" height="38" viewBox="0 0 38 38" fill="none" xmlns="http://www.w3.org/2000/svg">
<path d="M20.8004 11.5001V6.00012C20.8375 2.24848 21.758 0.989318 25.8004 1.00012H32.3004C36.3632 1.05311 36.9868 2.4517 37.0004 6.00012V11.5001C36.9695 15.664 36.2638 17.1236 32.3004 17.2001H25.8004C22.148 17.1323 20.7711 16.1122 20.8004 11.5001Z" fill="#ff6f00"/>
<path d="M20.8004 31.3001V25.8001C20.8375 22.0485 21.758 20.7893 25.8004 20.8001H32.3004C36.3632 20.8531 36.9868 22.2517 37.0004 25.8001V31.3001C36.9695 35.464 36.2638 36.9236 32.3004 37.0001H25.8004C22.148 36.9323 20.7711 35.9122 20.8004 31.3001Z" fill="#ff6f00"/>
<path d="M1.00037 31.3001V25.8001C1.03753 22.0485 1.95802 20.7893 6.00036 20.8001H12.5004C16.5632 20.8531 17.1868 22.2517 17.2004 25.8001V31.3001C17.1696 35.464 16.4638 36.9236 12.5004 37.0001H6.00036C2.34797 36.9323 0.97105 35.9122 1.00037 31.3001Z" fill="#ff6f00"/>
<path d="M1.00046 11.5001V6.00007C1.03762 2.24843 1.95811 0.98927 6.00045 1.00007H12.5005C16.5633 1.05306 17.1869 2.45165 17.2005 6.00007V11.5001C17.1696 15.664 16.4639 17.1235 12.5005 17.2001H6.00045C2.34807 17.1322 0.971142 16.1121 1.00046 11.5001Z" fill="#ff6f00"/>
</svg>
