<svg width="254" height="100" viewBox="0 0 254 100" fill="none" xmlns="http://www.w3.org/2000/svg">
<g clip-path="url(#clip0_6_14)">
<path d="M131.088 36.5261L143.168 35.7442C143.443 37.722 143.949 39.1938 144.775 40.2517C146.107 41.9076 147.945 42.7355 150.379 42.7355C152.17 42.7355 153.594 42.3215 154.559 41.4476C155.477 40.7577 156.029 39.6538 156.029 38.5039C156.029 37.4 155.523 36.3421 154.651 35.6522C153.732 34.8243 151.573 33.9963 148.174 33.2604C142.617 32.0185 138.621 30.3627 136.278 28.2469C133.936 26.2691 132.604 23.3713 132.695 20.2896C132.695 18.1738 133.339 16.058 134.533 14.3102C135.911 12.3324 137.794 10.7686 140.044 9.89464C142.479 8.83674 145.878 8.28479 150.149 8.28479C155.386 8.28479 159.382 9.2507 162.137 11.2285C164.893 13.1603 166.547 16.288 167.052 20.5656L155.11 21.2555C154.788 19.4157 154.145 18.0819 153.089 17.2079C152.033 16.334 150.655 15.9201 148.863 15.9201C147.393 15.9201 146.291 16.242 145.556 16.84C144.867 17.3919 144.408 18.2198 144.454 19.1398C144.454 19.8297 144.821 20.4736 145.373 20.8876C145.97 21.4395 147.393 21.9455 149.644 22.4054C155.202 23.6013 159.152 24.7972 161.586 26.0391C164.021 27.281 165.766 28.7988 166.822 30.5927C167.925 32.4325 168.476 34.5483 168.43 36.7101C168.43 39.2858 167.695 41.8616 166.225 44.0234C164.71 46.2772 162.597 48.025 160.116 49.0829C157.498 50.2328 154.191 50.8307 150.241 50.8307C143.26 50.8307 138.437 49.4968 135.727 46.7831C133.017 44.0694 131.409 40.6657 131.088 36.5261ZM2.89367 50.1408V9.02072H24.068C27.9722 9.02072 31.0036 9.34269 33.0705 10.0326C35.0915 10.6766 36.8828 12.0104 38.077 13.8043C39.409 15.7821 40.0521 18.0819 40.0061 20.4736C40.1439 24.5212 38.077 28.3849 34.5403 30.4087C33.1624 31.1906 31.6467 31.7425 30.085 32.0185C31.2333 32.3405 32.3816 32.8924 33.392 33.5364C34.1729 34.1803 34.8159 34.9162 35.413 35.6982C36.102 36.4801 36.6991 37.354 37.2043 38.2739L43.3591 50.1868H28.9367L22.1389 37.538C21.2662 35.9281 20.5313 34.8702 19.8423 34.3643C18.9237 33.7204 17.8213 33.3984 16.719 33.3984H15.6166V50.0948H2.89367V50.1408ZM15.6166 25.6711H20.9906C22.1389 25.5791 23.2412 25.3952 24.3436 25.1192C25.1703 24.9812 25.9052 24.5212 26.4105 23.8313C27.6506 22.1755 27.4669 19.8297 25.9512 18.4038C25.1244 17.7139 23.5168 17.3459 21.2203 17.3459H15.6166V25.6711ZM0 85.3734L12.0799 84.5915C12.3555 86.5693 12.8608 88.0412 13.6875 89.0991C14.9736 90.7549 16.8568 91.6288 19.2911 91.6288C21.0825 91.6288 22.5063 91.2149 23.4709 90.3409C24.3895 89.605 24.9407 88.5471 24.9407 87.3972C24.9407 86.2933 24.4354 85.2354 23.5627 84.5455C22.6441 83.7176 20.4854 82.8896 17.0405 82.1537C11.4828 80.9118 7.4868 79.256 5.1443 77.1402C2.80181 75.1624 1.4698 72.2647 1.56166 69.183C1.56166 67.0672 2.2047 64.9514 3.39891 63.2035C4.77685 61.2257 6.66004 59.6619 8.91067 58.788C11.345 57.7301 14.7439 57.1781 19.0156 57.1781C24.2517 57.1781 28.2477 58.144 31.0036 60.1218C33.7595 62.0996 35.3671 65.1813 35.8723 69.4589L23.9302 70.1489C23.6087 68.309 22.9656 66.9752 21.9092 66.1013C20.8987 65.2273 19.4749 64.8134 17.6835 64.8594C16.2137 64.8594 15.1114 65.1813 14.3765 65.8253C13.6416 66.3772 13.2282 67.2051 13.2741 68.1251C13.2741 68.815 13.6416 69.4589 14.1928 69.8729C14.7899 70.4248 16.2137 70.9308 18.4644 71.3908C24.0221 72.5866 27.9721 73.7825 30.4065 75.0244C32.8409 76.2663 34.5863 77.7841 35.6427 79.578C36.745 81.4178 37.2962 83.5336 37.2962 85.6494C37.2962 88.2251 36.5154 90.7549 35.0915 92.9167C33.5758 95.1705 31.4629 96.9183 28.9826 97.9762C26.3646 99.1261 23.0575 99.724 19.1074 99.724C12.1259 99.724 7.30307 98.3902 4.59313 95.6764C1.88318 92.9167 0.36745 89.513 0 85.3734H0Z" fill="#ff6f00"/>
<path d="M61.0886 82.1537L72.204 85.5114C71.6069 88.3171 70.3667 90.9849 68.6673 93.3306C67.1056 95.4004 65.0387 97.0103 62.6962 98.0682C60.3078 99.1261 57.2763 99.678 53.6018 99.678C49.1465 99.678 45.472 99.0341 42.6702 97.7462C39.8224 96.4583 37.3881 94.1586 35.3212 90.8929C33.2543 87.6272 32.2438 83.4416 32.2438 78.3361C32.2438 71.5287 34.0351 66.2852 37.6637 62.6516C41.2922 59.0179 46.3906 57.1781 53.0047 57.1781C58.195 57.1781 62.2369 58.236 65.2224 60.3058C68.162 62.4216 70.3667 65.6413 71.8365 69.9649L60.6293 72.4486C60.3537 71.4827 59.9403 70.5168 59.3892 69.6889C58.7002 68.723 57.8275 67.9871 56.7711 67.4351C55.7147 66.8832 54.5204 66.6532 53.3262 66.6532C50.4326 66.6532 48.2279 67.8031 46.7121 70.1489C45.5638 71.8507 44.9667 74.5644 44.9667 78.2441C44.9667 82.7976 45.6557 85.9254 47.0336 87.6272C48.4116 89.329 50.3407 90.1569 52.8669 90.1569C55.3013 90.1569 57.1385 89.467 58.3787 88.1331C59.6188 86.7073 60.5374 84.7295 61.0886 82.1537ZM87.0398 57.868H99.7168V72.2647H113.588V57.868H126.357V98.9881H113.588V82.3377H99.7168V98.9881H87.0398V57.868V57.868Z" fill="#ff6f00"/>
<path d="M124.612 78.428C124.612 71.7127 126.495 66.4692 130.215 62.7435C133.936 59.0179 139.172 57.1321 145.832 57.1321C152.676 57.1321 157.912 58.9719 161.632 62.6516C165.353 66.3312 167.19 71.4827 167.19 78.1061C167.19 82.9356 166.363 86.8452 164.756 89.9269C163.194 92.9627 160.759 95.4464 157.774 97.1023C154.697 98.8041 150.884 99.678 146.337 99.678C141.698 99.678 137.886 98.9421 134.854 97.4702C131.731 95.9064 129.159 93.4686 127.459 90.4789C125.576 87.2592 124.612 83.2576 124.612 78.428ZM137.289 78.474C137.289 82.6136 138.069 85.6034 139.585 87.4432C141.101 89.237 143.214 90.1569 145.878 90.1569C148.588 90.1569 150.701 89.283 152.216 87.4892C153.732 85.6953 154.467 82.5217 154.467 77.9221C154.467 74.0585 153.686 71.2067 152.124 69.4589C150.563 67.6651 148.45 66.7912 145.786 66.7912C143.443 66.6992 141.193 67.7111 139.631 69.5049C138.069 71.2987 137.289 74.2884 137.289 78.474V78.474ZM180.188 78.428C180.188 71.7127 182.072 66.4692 185.792 62.7435C189.512 59.0179 194.749 57.1321 201.409 57.1321C208.252 57.1321 213.535 58.9719 217.209 62.6516C220.884 66.3312 222.767 71.4827 222.767 78.1061C222.767 82.9356 221.94 86.8452 220.332 89.9269C218.771 92.9627 216.336 95.4464 213.351 97.1023C210.273 98.8041 206.461 99.678 201.914 99.678C197.275 99.678 193.463 98.9421 190.431 97.4702C187.308 95.9064 184.736 93.4686 183.036 90.4789C181.153 87.2592 180.188 83.2576 180.188 78.428V78.428ZM192.865 78.474C192.865 82.6136 193.646 85.6034 195.162 87.4432C196.678 89.237 198.791 90.1569 201.455 90.1569C204.165 90.1569 206.277 89.283 207.793 87.4892C209.309 85.6953 210.044 82.5217 210.044 77.9221C210.044 74.0585 209.263 71.2067 207.701 69.4589C206.14 67.6651 204.027 66.7912 201.363 66.7912C199.02 66.6992 196.724 67.7111 195.208 69.5049C193.646 71.2987 192.865 74.2884 192.865 78.474V78.474Z" fill="#ff6f00"/>
<path d="M221.435 57.868H234.112V88.8691H253.908V98.9881H221.389V57.868H221.435Z" fill="#ff6f00"/>
<path d="M207.762 55.8945C220.67 46.1544 224.778 29.5255 216.652 18.7266C208.525 7.92775 191.43 7.29971 178.523 17.0398C165.616 26.7799 161.508 43.4088 169.634 54.2077C177.761 65.0065 194.855 65.6346 207.762 55.8945Z" fill="white" stroke="#ff6f00"/>
<path d="M179.591 33.6744L184.184 30.4547L189.834 38.5039C190.799 39.7918 191.533 41.1716 192.085 42.6895C192.406 43.8394 192.314 45.0813 191.855 46.1852C191.258 47.565 190.293 48.7149 189.007 49.5428C187.491 50.6007 186.205 51.1987 185.103 51.3827C184.047 51.5667 182.944 51.3827 181.934 50.9227C180.831 50.3708 179.867 49.5888 179.132 48.5769L183.082 44.8973C183.404 45.4032 183.817 45.8632 184.276 46.2312C184.598 46.4611 184.965 46.5991 185.379 46.5991C185.7 46.5991 186.022 46.4611 186.251 46.2772C186.711 46.0012 187.032 45.4492 186.986 44.8973C186.848 44.1154 186.527 43.3334 186.022 42.7355L179.591 33.6744V33.6744ZM193.371 38.7799L197.55 35.4682C198.01 36.0201 198.607 36.4341 199.25 36.6641C200.168 36.94 201.133 36.7561 201.914 36.1581C202.465 35.7902 202.924 35.2842 203.108 34.6403C203.384 33.8123 202.924 32.8924 202.098 32.6165C201.96 32.5705 201.822 32.5245 201.684 32.5245C201.133 32.4785 200.168 32.7085 198.745 33.3064C196.402 34.2723 194.565 34.6403 193.187 34.5023C191.855 34.3643 190.615 33.6744 189.88 32.5245C189.329 31.7425 189.053 30.8226 189.007 29.9027C189.007 28.8448 189.283 27.7869 189.88 26.913C190.753 25.6711 191.809 24.6132 193.095 23.7853C195.024 22.4514 196.724 21.8075 198.193 21.8075C199.663 21.8075 201.041 22.4974 202.327 23.9233L198.193 27.189C197.367 26.1311 195.805 25.9011 194.749 26.729L194.611 26.867C194.151 27.143 193.83 27.5569 193.646 28.0629C193.508 28.4309 193.6 28.8448 193.83 29.1668C194.014 29.3968 194.289 29.5808 194.611 29.5808C194.978 29.6267 195.621 29.4428 196.54 29.0288C198.836 28.0629 200.582 27.5109 201.776 27.327C202.787 27.143 203.843 27.235 204.808 27.6489C205.68 28.0169 206.415 28.6608 206.92 29.4428C207.563 30.3627 207.931 31.4666 207.977 32.6165C208.023 33.8123 207.701 34.9622 207.058 35.9741C206.231 37.216 205.175 38.2739 203.935 39.1018C201.409 40.8497 199.342 41.5856 197.688 41.3096C195.897 41.0337 194.427 40.1137 193.371 38.7799V38.7799Z" fill="#3b3b3b"/>
</g>
<defs>
<clipPath id="clip0_6_14">
<rect width="254" height="100" fill="white"/>
</clipPath>
</defs>
</svg>
