<svg width="38" height="38" viewBox="0 0 38 38" fill="none" xmlns="http://www.w3.org/2000/svg">
<path d="M1.0003 7.74535V4.21209C1.02453 1.802 1.62486 0.993107 4.26116 1.00004H8.50029C11.15 1.03409 11.5567 1.93255 11.5655 4.21209V7.74535C11.5454 10.4203 11.0852 11.3579 8.50029 11.4071H4.26116C1.87917 11.3635 0.981179 10.7082 1.0003 7.74535Z" fill="#ff6f00"/>
<path d="M13.913 7.74535V4.21209C13.9373 1.802 14.5376 0.993107 17.1739 1.00004H21.413C24.0627 1.03409 24.4694 1.93255 24.4783 4.21209V7.74535C24.4582 10.4203 23.9979 11.3579 21.413 11.4071H17.1739C14.7919 11.3635 13.8939 10.7082 13.913 7.74535Z" fill="#ff6f00"/>
<path d="M26.4348 7.74535V4.21209C26.459 1.802 27.0593 0.993107 29.6956 1.00004H33.9348C36.5845 1.03409 36.9911 1.93255 37 4.21209V7.74535C36.9799 10.4203 36.5196 11.3579 33.9348 11.4071H29.6956C27.3137 11.3635 26.4157 10.7082 26.4348 7.74535Z" fill="#ff6f00"/>
<path d="M1.00031 20.3687V16.8354C1.02454 14.4253 1.62486 13.6164 4.26117 13.6234H8.5003C11.15 13.6574 11.5567 14.5559 11.5655 16.8354V20.3687C11.5454 23.0436 11.0852 23.9812 8.5003 24.0304H4.26117C1.87918 23.9868 0.981188 23.3315 1.00031 20.3687Z" fill="#ff6f00"/>
<path d="M13.913 20.3687V16.8354C13.9373 14.4253 14.5376 13.6164 17.1739 13.6234H21.413C24.0627 13.6574 24.4694 14.5559 24.4783 16.8354V20.3687C24.4582 23.0436 23.9979 23.9812 21.413 24.0304H17.1739C14.7919 23.9868 13.8939 23.3315 13.913 20.3687Z" fill="#ff6f00"/>
<path d="M26.4348 20.3687V16.8354C26.459 14.4253 27.0593 13.6164 29.6957 13.6234H33.9348C36.5845 13.6574 36.9912 14.5559 37 16.8354V20.3687C36.9799 23.0436 36.5197 23.9812 33.9348 24.0304H29.6957C27.3137 23.9868 26.4157 23.3315 26.4348 20.3687Z" fill="#ff6f00"/>
<path d="M1.0003 33.3383V29.805C1.02453 27.3949 1.62486 26.586 4.26116 26.593H8.50029C11.15 26.627 11.5567 27.5255 11.5655 29.805V33.3383C11.5454 36.0132 11.0852 36.9508 8.50029 37H4.26116C1.87917 36.9564 0.981179 36.3011 1.0003 33.3383Z" fill="#ff6f00"/>
<path d="M13.913 33.3383V29.805C13.9373 27.3949 14.5376 26.586 17.1739 26.593H21.413C24.0627 26.627 24.4694 27.5255 24.4783 29.805V33.3383C24.4582 36.0132 23.9979 36.9508 21.413 37H17.1739C14.7919 36.9564 13.8939 36.3011 13.913 33.3383Z" fill="#ff6f00"/>
<path d="M26.4348 33.3383V29.805C26.459 27.3949 27.0593 26.586 29.6956 26.593H33.9348C36.5845 26.627 36.9911 27.5255 37 29.805V33.3383C36.9799 36.0132 36.5196 36.9508 33.9348 37H29.6956C27.3137 36.9564 26.4157 36.3011 26.4348 33.3383Z" fill="#ff6f00"/>
</svg>
