<svg width="576" height="448" viewBox="0 0 576 448" fill="none" xmlns="http://www.w3.org/2000/svg">
<path d="M64 0C28.7 0 0 28.7 0 64V384C0 419.3 28.7 448 64 448H512C547.3 448 576 419.3 576 384V64C576 28.7 547.3 0 512 0H64ZM229.5 141.3L301.5 285.3C307.4 297.2 302.6 311.6 290.8 317.5C279 323.4 264.5 318.6 258.6 306.8L253.2 296H162.8L157.4 306.7C151.5 318.6 137.1 323.4 125.2 317.4C113.3 311.4 108.5 297.1 114.5 285.2L186.5 141.2C190.6 133.1 198.9 127.9 208 127.9C217.1 127.9 225.4 133 229.5 141.2V141.3ZM208 205.7L186.8 248H229.1L208 205.7ZM392 224C378.7 224 368 234.7 368 248C368 261.3 378.7 272 392 272C405.3 272 416 261.3 416 248C416 234.7 405.3 224 392 224ZM416 180.1V152C416 138.7 426.7 128 440 128C453.3 128 464 138.7 464 152V248V296C464 309.3 453.3 320 440 320C433.4 320 427.4 317.3 423 313C413.6 317.5 403.1 320 392 320C352.2 320 320 287.8 320 248C320 208.2 352.2 176 392 176C400.4 176 408.5 177.4 416 180.1Z" fill="#0C75FF"/>
</svg>
